<svg xmlns="http://www.w3.org/2000/svg" width="64" height="64"><linearGradient id="a" gradientUnits="userSpaceOnUse" x1="32" y1="6.667" x2="32" y2="57.872" spreadMethod="reflect"><stop offset="0" stop-color="#1a6dff"/><stop offset="1" stop-color="#c822ff"/></linearGradient><path d="M44 57H20c-7.168 0-13-5.832-13-13V20c0-7.168 5.832-13 13-13h24c7.168 0 13 5.832 13 13v24c0 7.168-5.832 13-13 13zM20 9C13.935 9 9 13.935 9 20v24c0 6.065 4.935 11 11 11h24c6.065 0 11-4.935 11-11V20c0-6.065-4.935-11-11-11H20z" fill="url(#a)"/><linearGradient id="b" gradientUnits="userSpaceOnUse" x1="32" y1="18.167" x2="32" y2="45.679" spreadMethod="reflect"><stop offset="0" stop-color="#6dc7ff"/><stop offset="1" stop-color="#e6abff"/></linearGradient><path d="M32 45c-7.168 0-13-5.832-13-13s5.832-13 13-13 13 5.832 13 13-5.832 13-13 13zm0-22c-4.962 0-9 4.038-9 9 0 4.963 4.038 9 9 9 4.963 0 9-4.037 9-9 0-4.962-4.037-9-9-9z" fill="url(#b)"/><linearGradient id="c" gradientUnits="userSpaceOnUse" x1="46" y1="12.75" x2="46" y2="23.049" spreadMethod="reflect"><stop offset="0" stop-color="#6dc7ff"/><stop offset="1" stop-color="#e6abff"/></linearGradient><circle cx="46" cy="18" r="3" fill="url(#c)"/></svg>